<svg xmlns="http://www.w3.org/2000/svg" viewBox="0 0 47.5 47.5" id="e"><defs><clipPath id="a"><path d="M0 38h38V0H0v38Z"></path></clipPath></defs><g clip-path="url(#a)" transform="matrix(1.25 0 0 -1.25 0 47.5)"><path fill="#3b88c3" d="M37 5a4 4 0 0 0-4-4H5a4 4 0 0 0-4 4v28a4 4 0 0 0 4 4h28a4 4 0 0 0 4-4V5Z"></path><path fill="#fff" d="M13.22 27.379c0 1.55.775 2.697 2.418 2.697h7.689c1.488 0 2.202-1.054 2.202-2.139 0-1.054-.744-2.14-2.202-2.14H17.87v-4.526h5.086c1.519 0 2.264-1.055 2.264-2.14 0-1.054-.776-2.139-2.264-2.139H17.87v-4.713h5.736c1.489 0 2.201-1.054 2.201-2.139 0-1.055-.744-2.14-2.201-2.14h-7.999c-1.364 0-2.387.93-2.387 2.325v17.054Z"></path></g></svg>